<?xml version="1.0" encoding="utf-8"?>
<!DOCTYPE svg PUBLIC "-//W3C//DTD SVG 1.1//EN" "http://www.w3.org/Graphics/SVG/1.1/DTD/svg11.dtd">
<svg version="1.1" id="Layer_1" xmlns="http://www.w3.org/2000/svg" xmlns:xlink="http://www.w3.org/1999/xlink" x="0px" y="0px"
	 width="48px" height="48px" viewBox="0 0 48 48" enable-background="new 0 0 48 48" xml:space="preserve">
<g>
	<path fill="#FFFFFF" d="M18.935,33.695c0-0.019,0.017-1.209,1.015-2.065c-3.216-1.772-3.773-5.453-3.773-5.453
		s0.952-3.085,5.7-3.085c1.163,0,2.125-1.922,2.125-1.922s-1.413-0.664-3.413-1.818c-0.797-0.494-1.51-1.108-2.115-1.826
		c-0.123-0.125-0.254-0.24-0.395-0.346c-0.171-0.695-0.258-1.408-0.259-2.123c0.004-0.68,0.075-1.355,0.211-2.02
		c-1.564,0.822-2.962,1.926-4.124,3.258h-0.058c-0.475-1.412-0.67-2.904-0.577-4.395c-4.115,2.641-6.595,7.197-6.575,12.086
		c0,14.995,12.986,17.946,17.302,17.946c2.041-0.018,3.996-0.386,5.81-1.046H18.934L18.935,33.695L18.935,33.695z"/>
	<path fill="#FFFFFF" d="M41.305,24.734c0-8.295-4.625-11.006-4.625-11.006c0.786,1.623,1.346,3.348,1.664,5.125
		c-1.115-2.951-3.826-5.816-5.922-8.191c-1.217-1.38-2.23-2.928-3.01-4.594c-3.387,2.092-5.599,5.647-5.979,9.611H24
		c3.346,0,6.43,1.818,8.046,4.748c-1.265-1.035-2.896-1.513-4.521-1.316c2.322,1.26,3.757,3.703,3.722,6.345
		c0,2.584-0.994,4.278-2.312,5.364h11.181C40.854,28.93,41.271,26.879,41.305,24.734z"/>
	<path fill="#FFFFFF" d="M40.952,38.699v-7.693H21.937c-2.814,0.375-2.814,2.689-2.814,2.689V40.7h19.891
		C41.305,40.389,40.952,38.699,40.952,38.699z M26.578,38.468c0,0.052-0.043,0.095-0.096,0.095h-3.521
		c-0.053,0-0.094-0.043-0.094-0.095V33.46c0-0.052,0.042-0.095,0.094-0.095h0.816c0.053,0,0.094,0.043,0.094,0.095v4.37h2.61
		c0.053,0,0.096,0.043,0.096,0.095V38.468z M28.307,38.468c0,0.052-0.043,0.095-0.095,0.095h-0.815
		c-0.054,0-0.095-0.043-0.095-0.095V33.46c0-0.052,0.041-0.095,0.095-0.095h0.815c0.052,0,0.095,0.043,0.095,0.095V38.468z
		 M33.693,34.009c0,0.052-0.041,0.095-0.094,0.095h-1.841v4.364c0,0.052-0.041,0.095-0.094,0.095H30.84
		c-0.051,0-0.094-0.043-0.094-0.095v-4.364h-1.83c-0.055,0-0.093-0.043-0.093-0.095V33.46c0-0.052,0.038-0.095,0.093-0.095h4.686
		c0.053,0,0.092,0.043,0.092,0.095V34.009L33.693,34.009z M37.957,38.468c0,0.052-0.041,0.095-0.094,0.095h-3.559
		c-0.052,0-0.095-0.043-0.095-0.095V33.46c0-0.052,0.043-0.095,0.095-0.095h3.416c0.055,0,0.094,0.043,0.094,0.095v0.541
		c0,0.054-0.039,0.095-0.094,0.095h-2.507v1.396h2.366c0.054,0,0.094,0.041,0.094,0.093v0.535c0,0.052-0.04,0.094-0.094,0.094
		h-2.366v1.616h2.647c0.053,0,0.094,0.043,0.094,0.095L37.957,38.468L37.957,38.468z"/>
</g>
</svg>
