<?xml version="1.0" encoding="utf-8"?>
<!DOCTYPE svg PUBLIC "-//W3C//DTD SVG 1.1//EN" "http://www.w3.org/Graphics/SVG/1.1/DTD/svg11.dtd">
<svg version="1.1" id="Layer_2" xmlns="http://www.w3.org/2000/svg" xmlns:xlink="http://www.w3.org/1999/xlink" x="0px" y="0px"
	 width="48px" height="48px" viewBox="0 0 48 48" enable-background="new 0 0 48 48" xml:space="preserve">
<g>
	<path fill="#FFFFFF" d="M25.234,16.977c-3.994,0-7.244,3.25-7.244,7.244c0,3.994,3.25,7.244,7.244,7.244s7.244-3.25,7.244-7.244
		C32.479,20.227,29.229,16.977,25.234,16.977z"/>
	<path fill="#FFFFFF" d="M24,6.027c-8.411,0-15.229,6.816-15.229,15.229S15.589,36.484,24,36.484s15.229-6.816,15.229-15.229
		S32.411,6.027,24,6.027z M25.234,33.439c-5.083,0-9.22-4.135-9.22-9.221c0-5.085,4.136-9.222,9.22-9.222
		c5.084,0,9.221,4.137,9.221,9.222C34.455,29.305,30.318,33.439,25.234,33.439z"/>
	<path fill="#FFFFFF" d="M37.257,40.598c-0.171,0.201-1.048,1.197-1.587,1.197c-0.041,0-0.079-0.007-0.117-0.018
		c-2.791-0.789-6.773-1.242-10.919-1.242c-3.069,0-7.623,0.249-11.903,1.433c-0.013,0.003-0.028,0.005-0.043,0.005
		c-0.03,0-0.058-0.007-0.083-0.021c-0.158-0.091-1.541-0.896-1.798-1.308c-0.023-0.039-0.044-0.104-0.003-0.19
		c0.237-0.519,3.933-3.876,5.514-4.13c0.03-0.004,0.059-0.002,0.085,0.011c0.046,0.017,4.771,1.827,7.59,1.717
		c4.075-0.161,7.759-1.94,7.795-1.959c0.032-0.017,0.071-0.021,0.106-0.014c1.655,0.36,5.207,4.14,5.354,4.301
		C37.311,40.439,37.312,40.535,37.257,40.598z"/>
</g>
</svg>
