<?xml version="1.0" encoding="utf-8"?>
<!DOCTYPE svg PUBLIC "-//W3C//DTD SVG 1.1//EN" "http://www.w3.org/Graphics/SVG/1.1/DTD/svg11.dtd">
<svg version="1.1" id="Layer_2" xmlns="http://www.w3.org/2000/svg" xmlns:xlink="http://www.w3.org/1999/xlink" x="0px" y="0px"
	 width="48px" height="48px" viewBox="0 0 48 48" enable-background="new 0 0 48 48" xml:space="preserve">
<g>
	<path fill="#FFFFFF" d="M23.93,12.599c-5.19,0-9.41,4.221-9.41,9.4c0,3.051,1.45,6.021,3.88,7.92c0,0,0,0.011,0.01,0.011
		c0.36,0.399,1.4,1.631,1.33,2.641c-0.02,0.41,0.34,1,0.71,1.172c0.04,0.021,0.09,0.027,0.14,0.039v0.141
		c-0.18,0.07-0.3,0.25-0.3,0.459c0,0.201,0.12,0.383,0.3,0.461v0.529c-0.18,0.07-0.3,0.25-0.3,0.461c0,0.209,0.12,0.391,0.3,0.459
		v0.562c-0.18,0.08-0.3,0.26-0.3,0.459c0,0.211,0.12,0.397,0.3,0.461v0.42c0,0.381,0.3,0.688,0.68,0.688h0.02
		c0.43,1.062,1.46,1.781,2.64,1.781c1.169,0,2.208-0.721,2.638-1.781H26.6c0.379,0,0.67-0.311,0.67-0.688v-0.42
		c0.189-0.062,0.311-0.25,0.311-0.461c0-0.199-0.12-0.379-0.311-0.459v-0.562c0.189-0.068,0.311-0.25,0.311-0.459
		c0-0.211-0.12-0.391-0.311-0.461v-0.529c0.189-0.078,0.311-0.26,0.311-0.461c0-0.209-0.12-0.389-0.311-0.459v-0.141h0.109
		c0.07,0,0.13-0.012,0.2-0.039c0.31-0.131,0.71-0.682,0.59-1.121c-0.2-0.74,0.59-1.93,1.29-2.699c1.18-0.92,2.16-2.131,2.83-3.479
		c0.689-1.398,1.061-2.93,1.061-4.44C33.34,16.82,29.12,12.599,23.93,12.599z M20.63,19c-1.194,1.016-2.642,1.277-3.229,0.586
		c-0.589-0.691-0.098-2.076,1.098-3.094c1.195-1.016,2.641-1.277,3.23-0.588C22.316,16.597,21.825,17.982,20.63,19z M26.27,37.881
		h-0.06c-0.229,0-0.431,0.16-0.489,0.379c-0.201,0.82-0.941,1.4-1.791,1.4c-0.85,0-1.59-0.58-1.79-1.4
		c-0.06-0.219-0.26-0.379-0.49-0.379h-0.06v-0.07h4.68V37.881L26.27,37.881z M26.27,36.811h-4.68v-0.479h4.68V36.811z M26.27,35.33
		h-4.68v-0.449h4.68V35.33z M26.27,33.279v0.602h-4.68v-0.602c0-0.01,0-0.021-0.01-0.029h4.699
		C26.27,33.26,26.27,33.27,26.27,33.279z"/>
	<path fill="#FFFFFF" d="M23.931,11.421c0.278,0,0.5-0.223,0.5-0.5V7.837c0-0.273-0.224-0.498-0.5-0.5
		c-0.276,0-0.499,0.227-0.499,0.502v3.082C23.432,11.199,23.656,11.421,23.931,11.421z"/>
	<path fill="#FFFFFF" d="M16.349,14.701c0.196-0.195,0.196-0.512,0-0.705l-2.182-2.182c-0.193-0.193-0.51-0.193-0.707,0
		c-0.195,0.194-0.193,0.512,0.002,0.709l2.18,2.178C15.837,14.896,16.154,14.896,16.349,14.701z"/>
	<path fill="#FFFFFF" d="M34.541,11.535c-0.193-0.195-0.514-0.193-0.709,0.002l-2.18,2.18c-0.193,0.195-0.193,0.512-0.002,0.707
		c0.197,0.195,0.514,0.195,0.707,0l2.184-2.182C34.732,12.048,34.732,11.732,34.541,11.535z"/>
</g>
</svg>
