<?xml version="1.0" encoding="utf-8"?>
<!DOCTYPE svg PUBLIC "-//W3C//DTD SVG 1.1//EN" "http://www.w3.org/Graphics/SVG/1.1/DTD/svg11.dtd">
<svg version="1.1" id="Layer_1" xmlns="http://www.w3.org/2000/svg" xmlns:xlink="http://www.w3.org/1999/xlink" x="0px" y="0px"
	 width="48px" height="48px" viewBox="0 0 48 48" enable-background="new 0 0 48 48" xml:space="preserve">
<g>
	<path fill="none" d="M19.382,25.93c0.427,0,0.767-0.146,1.042-0.443c0.274-0.297,0.413-0.731,0.413-1.292
		c0-0.356-0.061-0.671-0.18-0.935c-0.116-0.256-0.288-0.457-0.51-0.596c-0.222-0.143-0.477-0.214-0.755-0.214
		c-0.402,0-0.739,0.136-1.029,0.411c-0.284,0.271-0.429,0.741-0.429,1.396c0,0.521,0.14,0.937,0.415,1.229
		C18.624,25.786,18.963,25.93,19.382,25.93z"/>
	<path fill="none" d="M25.039,25.541c0.133-0.131,0.234-0.311,0.307-0.531c0.078-0.229,0.117-0.517,0.117-0.853
		c0-0.456-0.074-0.811-0.219-1.048c-0.146-0.237-0.314-0.197-0.514-0.272c-0.148-0.058-0.4,0.108-0.748,0.108h-0.994v3h1.008
		c0.288,0,0.515-0.084,0.679-0.139C24.83,25.756,24.953,25.629,25.039,25.541z"/>
	<path fill="none" d="M29.635,23.785c0.131-0.049,0.229-0.161,0.293-0.265c0.068-0.105,0.104-0.238,0.104-0.363
		c0-0.182-0.062-0.122-0.193-0.236c-0.134-0.119-0.356,0.023-0.666,0.023H27.99v1h1.033C29.284,23.944,29.49,23.836,29.635,23.785z"
		/>
	<path fill="none" d="M35.99,38.489v0.724c0,1.006-0.965,0.73-1.463,1.73H13.184c-0.54,0-1.193-0.973-1.193-1.33V10.037
		c0-0.259,0.234-0.422,0.504-0.671c0.325-0.312,0.689-0.422,0.689-0.422h-0.193v27.742l0.28,0.433
		c0.271,0.614,1.297,1.825,2.409,1.825h20.468L35.99,38.489z"/>
	<path fill="none" d="M29.189,5.944H15.681c0,0-1.69,0.364-1.69,0.938v29.576c1,0.356,1.149,0.485,1.69,0.485h21.342
		c0.055,0,0.131,0.189,0.207,0.171c0.248-0.076,0.571-0.06,0.842-0.22c0.162-0.1,0.523-0.16,0.632-0.311
		c0.022-0.033,0.287-0.02,0.287-0.062c0,0,0,0,0-0.013c0-0.043-0.005-0.086,0.005-0.129c0.033-0.099-0.005-0.205-0.005-0.323V14.985
		L29.189,5.944z M29.955,24.527c0.184,0.173,0.355,0.537,0.529,0.796l0.94,1.62h-1.093l-0.657-1.176
		c-0.174-0.271-0.323-0.562-0.434-0.701c-0.13-0.174-0.228-0.287-0.281-0.318c-0.087-0.055-0.162,0.076-0.237,0.057
		c-0.056-0.014-0.162,0.141-0.312,0.141h-0.42v2h-1v-5h2.154c0.432,0,0.756-0.06,0.994,0.029c0.235,0.096,0.432,0.206,0.582,0.444
		c0.141,0.237,0.206,0.473,0.206,0.742c0,0.367-0.118,0.668-0.356,0.918c-0.162,0.186-0.398,0.309-0.702,0.393
		C29.902,24.491,29.924,24.506,29.955,24.527z M26.367,24.17c0,0.357-0.043,0.691-0.131,0.975c-0.084,0.278-0.193,0.526-0.334,0.713
		c-0.141,0.194-0.291,0.347-0.465,0.455c-0.162,0.104-0.355,0.342-0.595,0.396c-0.228,0.062-0.476,0.233-0.778,0.233h-2.076v-5h2
		c0.378,0,0.66-0.08,0.865-0.037c0.28,0.064,0.53,0.133,0.735,0.316c0.259,0.217,0.453,0.473,0.582,0.818
		C26.303,23.374,26.367,23.739,26.367,24.17z M21.742,24.204c0,0.485-0.108,0.929-0.302,1.317c-0.206,0.4-0.497,0.703-0.865,0.896
		c-0.367,0.205-0.767,0.312-1.188,0.312c-0.465,0-0.887-0.119-1.244-0.348c-0.367-0.217-0.648-0.527-0.832-0.918
		c-0.184-0.381-0.28-0.789-0.28-1.221c0-0.801,0.216-1.438,0.659-1.903c0.432-0.453,1.005-0.689,1.697-0.689
		c0.454,0,0.864,0.107,1.231,0.324c0.357,0.217,0.649,0.529,0.833,0.919C21.645,23.274,21.742,23.717,21.742,24.204z M30.355,30.943
		H17.572c-0.303,0-0.54-0.209-0.54-0.5c0-0.305,0.237-0.5,0.54-0.5h12.784c0.304,0,0.541,0.195,0.541,0.5
		C30.896,30.734,30.658,30.943,30.355,30.943z M33.967,28.943H17.572c-0.303,0-0.54-0.209-0.54-0.5c0-0.303,0.237-0.5,0.54-0.5
		h16.395c0.291,0,0.539,0.197,0.539,0.5C34.506,28.736,34.258,28.943,33.967,28.943z"/>
	<path fill="none" d="M33.305,41.943c-0.043,0-0.084-0.043-0.15,0.014c-0.043,0.043-0.106,0.012-0.172,0.055
		c-0.186,0.117-0.389-0.041-0.584,0.016c-0.193,0.062-0.377-0.082-0.508-0.082H10.547c-0.216,0-0.432,0.103-0.616-0.041
		c-0.184-0.129-0.519-0.188-0.638-0.352c-0.054-0.088-0.303-0.07-0.303-0.135V11.83c0-0.27,0.433-0.339,0.713-0.6
		c0.325-0.292,0.843-0.286,0.843-0.286h0.443v28.885l0.033,0.354c0.27,0.627,1.049,1.76,2.161,1.76H33.305L33.305,41.943z"/>
</g>
</svg>
