<?xml version="1.0" encoding="utf-8"?>
<!DOCTYPE svg PUBLIC "-//W3C//DTD SVG 1.1//EN" "http://www.w3.org/Graphics/SVG/1.1/DTD/svg11.dtd">
<svg version="1.1" id="Layer_1" xmlns="http://www.w3.org/2000/svg" xmlns:xlink="http://www.w3.org/1999/xlink" x="0px" y="0px"
	 width="48px" height="48px" viewBox="0 0 48 48" enable-background="new 0 0 48 48" xml:space="preserve">
<g>
	<path fill="#FFFFFF" d="M32.996,6.098c-0.036-0.112-0.139-0.187-0.256-0.187h-1.045c-0.117,0-0.219,0.074-0.254,0.187l-2.282,7.131
		c-0.026,0.08-0.013,0.167,0.036,0.236c0.052,0.07,0.132,0.11,0.218,0.11h0.896c0.118,0,0.224-0.074,0.256-0.187l0.643-2.056h1.988
		l0.658,2.059c0.037,0.11,0.14,0.184,0.256,0.184h0.927c0.086,0,0.166-0.04,0.217-0.11c0.05-0.069,0.062-0.157,0.039-0.239
		L32.996,6.098z M31.552,10.08l0.55-1.721c0.032-0.106,0.062-0.213,0.094-0.327c0.031,0.112,0.066,0.226,0.104,0.344l0.548,1.704
		H31.552z"/>
	<path fill="#FFFFFF" d="M25.846,23.066H9.444c0,0-2.755,0.534-2.755,2.754c0,2.224,0,8.89,0,8.89h16.71v2.244L6.667,36.999
		c0,0,0.044,1.786,0.125,2.375c0.125,0.905,0.43,1.914,2.452,2.714h16.467c0,0,3.066-0.889,3.066-3.066c0-2.176,0-8.711,0-8.711
		H12.022v-2.088h16.755l0.065-2.156C28.846,26.064,28.288,23.6,25.846,23.066z"/>
	<circle fill="#FFFFFF" cx="17.556" cy="17.088" r="3.735"/>
	<path fill="#FFFFFF" d="M41.333,6.179c0-0.146-0.121-0.267-0.267-0.267h-0.819c-0.146,0-0.267,0.121-0.267,0.267v2.983
		c0,0.585,0.004,1.124,0.022,1.657c-0.196-0.378-0.417-0.769-0.655-1.168l-2.152-3.607c-0.047-0.081-0.135-0.131-0.229-0.131h-0.944
		c-0.146,0-0.268,0.121-0.268,0.267v7.13c0,0.146,0.119,0.267,0.268,0.267h0.814c0.148,0,0.268-0.12,0.268-0.267v-3.046
		c0-0.671-0.004-1.232-0.02-1.754c0.211,0.4,0.453,0.835,0.739,1.317l2.132,3.619c0.049,0.081,0.138,0.131,0.23,0.131h0.879
		c0.146,0,0.268-0.12,0.268-0.267l0,0L41.333,6.179L41.333,6.179z"/>
	<path fill="#FFFFFF" d="M24.945,7.228h1.777v6.083c0,0.146,0.118,0.267,0.268,0.267h0.877c0.146,0,0.267-0.12,0.267-0.267V7.229
		h1.787c0.147,0,0.269-0.119,0.269-0.267V6.179c0-0.146-0.121-0.266-0.269-0.266h-4.976c-0.146,0-0.266,0.12-0.266,0.266v0.782
		C24.68,7.108,24.799,7.228,24.945,7.228z"/>
</g>
</svg>
