<?xml version="1.0" encoding="utf-8"?>
<!DOCTYPE svg PUBLIC "-//W3C//DTD SVG 1.1//EN" "http://www.w3.org/Graphics/SVG/1.1/DTD/svg11.dtd">
<svg version="1.1" id="Layer_1" xmlns="http://www.w3.org/2000/svg" xmlns:xlink="http://www.w3.org/1999/xlink" x="0px" y="0px"
	 width="48px" height="48px" viewBox="0 0 48 48" enable-background="new 0 0 48 48" xml:space="preserve">
<g>
	<path fill="#FFFFFF" d="M28.77,16.44v14.72c0,0.291-0.17,0.561-0.438,0.68c-0.101,0.051-0.2,0.07-0.312,0.07
		c-0.18,0-0.358-0.07-0.5-0.199L22.68,27.32l-4.95,0.09c-0.01,0-0.01,0-0.02,0c-0.19,0-0.38-0.08-0.52-0.219
		c-0.15-0.142-0.23-0.33-0.23-0.531v-5.72c0-0.42,0.34-0.75,0.75-0.75h4.6l5.23-4.33c0.14-0.11,0.31-0.17,0.479-0.17
		c0.109,0,0.221,0.02,0.319,0.07C28.609,15.88,28.77,16.15,28.77,16.44z"/>
	<path fill="#FFFFFF" d="M8.317,15.9c-0.085,0-0.171-0.021-0.25-0.067c-0.238-0.139-0.32-0.444-0.182-0.684
		c3.085-5.333,8.825-8.646,14.979-8.646c0.276,0,0.5,0.224,0.5,0.5s-0.224,0.5-0.5,0.5c-5.799,0-11.207,3.121-14.114,8.146
		C8.659,15.812,8.491,15.9,8.317,15.9z"/>
	<path fill="#FFFFFF" d="M23.14,41.496c-6.154,0-11.896-3.312-14.98-8.646c-0.139-0.238-0.057-0.545,0.182-0.682
		c0.239-0.141,0.545-0.059,0.684,0.182c2.907,5.025,8.316,8.146,14.115,8.146c0.276,0,0.5,0.225,0.5,0.5S23.416,41.496,23.14,41.496
		z"/>
	<path fill="#FFFFFF" d="M37.434,32.695c-0.086,0-0.172-0.021-0.252-0.066c-0.238-0.139-0.32-0.443-0.182-0.684
		c1.427-2.463,2.182-5.281,2.182-8.147c0-2.866-0.755-5.683-2.182-8.148c-0.139-0.239-0.057-0.545,0.182-0.684
		c0.236-0.138,0.545-0.059,0.686,0.183c1.515,2.616,2.314,5.606,2.314,8.648s-0.802,6.033-2.314,8.648
		C37.771,32.605,37.604,32.695,37.434,32.695z"/>
	<path fill="#FFFFFF" d="M10.79,17.278c-0.085,0-0.171-0.021-0.25-0.067c-0.239-0.139-0.321-0.444-0.183-0.684
		c2.593-4.481,7.415-7.265,12.585-7.265c0.276,0,0.5,0.224,0.5,0.5c0,0.276-0.224,0.5-0.5,0.5c-4.814,0-9.305,2.593-11.72,6.766
		C11.13,17.188,10.962,17.278,10.79,17.278z"/>
	<path fill="#FFFFFF" d="M22.94,38.33c-5.17,0-9.991-2.783-12.583-7.264c-0.139-0.236-0.057-0.545,0.183-0.683
		c0.239-0.141,0.544-0.057,0.683,0.183c2.414,4.172,6.904,6.764,11.718,6.764c0.276,0,0.5,0.223,0.5,0.5
		C23.441,38.105,23.217,38.33,22.94,38.33z"/>
	<path fill="#FFFFFF" d="M34.93,31.316c-0.086,0-0.173-0.021-0.25-0.066c-0.24-0.139-0.322-0.443-0.184-0.684
		c1.186-2.049,1.812-4.392,1.812-6.769c0-2.378-0.627-4.719-1.813-6.771c-0.14-0.239-0.058-0.545,0.183-0.683
		c0.236-0.141,0.545-0.058,0.684,0.182c1.273,2.204,1.947,4.718,1.947,7.271s-0.672,5.068-1.945,7.27
		C35.27,31.229,35.102,31.316,34.93,31.316z"/>
	<path fill="#FFFFFF" d="M13.248,18.676c-0.085,0-0.171-0.021-0.25-0.067c-0.238-0.139-0.32-0.444-0.182-0.684
		c2.069-3.578,5.921-5.801,10.05-5.801c0.276,0,0.5,0.224,0.5,0.5s-0.224,0.5-0.5,0.5c-3.773,0-7.293,2.031-9.185,5.302
		C13.588,18.586,13.42,18.676,13.248,18.676z"/>
	<path fill="#FFFFFF" d="M22.865,35.471c-4.129,0-7.979-2.223-10.048-5.799c-0.139-0.238-0.057-0.545,0.182-0.684
		c0.239-0.141,0.545-0.057,0.684,0.184c1.891,3.268,5.409,5.299,9.183,5.299c0.276,0,0.5,0.223,0.5,0.5
		C23.366,35.246,23.142,35.471,22.865,35.471z"/>
	<path fill="#FFFFFF" d="M32.607,29.85c-0.084,0-0.17-0.021-0.25-0.065c-0.238-0.14-0.32-0.443-0.184-0.685
		c0.928-1.604,1.417-3.438,1.417-5.303c0-1.864-0.487-3.696-1.415-5.298c-0.139-0.239-0.057-0.545,0.184-0.684
		c0.236-0.138,0.543-0.057,0.684,0.183c1.014,1.754,1.55,3.759,1.55,5.799c0,2.038-0.536,4.043-1.552,5.803
		C32.949,29.76,32.779,29.85,32.607,29.85z"/>
</g>
</svg>
