<?xml version="1.0" encoding="utf-8"?>
<!DOCTYPE svg PUBLIC "-//W3C//DTD SVG 1.1//EN" "http://www.w3.org/Graphics/SVG/1.1/DTD/svg11.dtd">
<svg version="1.1" id="Layer_2" xmlns="http://www.w3.org/2000/svg" xmlns:xlink="http://www.w3.org/1999/xlink" x="0px" y="0px"
	 width="48px" height="48px" viewBox="0 0 48 48" enable-background="new 0 0 48 48" xml:space="preserve">
<path fill="#FFFFFF" d="M42.5,23.25v-3.01c0-0.22-0.17-0.39-0.391-0.39H28.96l-4.67-5.32l2.431-2.25L16.34,8.6l2.06,10.7l2.49-1.96
	l2.19,2.51H5.89c-0.22,0-0.39,0.17-0.39,0.39v3.01c0,0.21,0.17,0.38,0.39,0.38h20.48l0.37,0.42c-2.221,0.34-4.47,1.16-6.28,2.511
	c-3.34,2.479-4.14,5.25-3.84,7.479H5.89c-0.22,0-0.39,0.17-0.39,0.38v3.01c0,0.211,0.17,0.381,0.39,0.381h12.66
	c1.66,1.42,4.58,2.471,7.521,2.471c2.011,0,4.029-0.49,5.66-1.66c0.369-0.271,0.729-0.54,1.051-0.811h9.33
	c0.22,0,0.39-0.17,0.39-0.381v-3.01c0-0.21-0.17-0.38-0.39-0.38H36c0.59-1.14,0.85-2.24,0.87-3.261c0.03-0.799,0.05-1.609-0.3-2.239
	c-0.65-1.16-3.5-3.99-3.5-3.99l-0.801-0.92h9.84C42.33,23.63,42.5,23.46,42.5,23.25z M21.47,16.83c-0.14-0.17-0.36-0.26-0.58-0.26
	c-0.17,0-0.33,0.05-0.47,0.16l-1.51,1.18l-1.56-8.13l7.91,2.8l-1.49,1.38c-0.31,0.28-0.33,0.76-0.06,1.08l4.229,4.81h-3.83
	L21.47,16.83z M32.49,25.061c0.01,0.01,0.029,0.021,0.039,0.029c0.771,0.78,2.881,2.96,3.359,3.82c0.25,0.46,0.24,1.16,0.211,1.84
	c-0.029,1.109-0.359,2.21-0.99,3.29c-0.149,0.26-0.319,0.51-0.51,0.771c-0.551,0.76-1.25,1.521-2.101,2.229
	c-0.3,0.26-0.62,0.53-0.97,0.771c-0.08,0.069-0.16,0.131-0.24,0.189c-1.38,0.98-3.189,1.51-5.221,1.51
	c-2.429,0-4.689-0.74-6.209-1.699c-0.39-0.229-0.74-0.5-1.02-0.771c-0.23-0.21-0.41-0.431-0.56-0.64
	c-0.11-0.17-0.47-0.74-0.71-1.592c-0.07-0.229-0.13-0.5-0.18-0.77c-0.26-1.811,0.18-4.37,3.53-6.859
	c1.58-1.181,3.7-2.021,5.94-2.359c0.279-0.051,0.51-0.23,0.608-0.5c0.08-0.23,0.05-0.49-0.09-0.69h3.87L32.49,25.061z"/>
</svg>
