<?xml version="1.0" encoding="utf-8"?>
<!DOCTYPE svg PUBLIC "-//W3C//DTD SVG 1.1//EN" "http://www.w3.org/Graphics/SVG/1.1/DTD/svg11.dtd">
<svg version="1.1" id="Layer_1" xmlns="http://www.w3.org/2000/svg" xmlns:xlink="http://www.w3.org/1999/xlink" x="0px" y="0px"
	 width="48px" height="48px" viewBox="0 0 48 48" enable-background="new 0 0 48 48" xml:space="preserve">
<path fill="#FFFFFF" d="M24,6.12C14.14,6.12,6.12,14.14,6.12,24c0,9.859,8.02,17.88,17.88,17.88c9.859,0,17.88-8.021,17.88-17.88
	C41.88,14.14,33.859,6.12,24,6.12z M35.91,18.2L25.9,23.94l0.33,0.23c0.459,0.31,0.568,0.93,0.27,1.391
	C26.3,25.85,25.99,26,25.67,26c-0.199,0-0.391-0.061-0.561-0.17L25,25.76v10.99c0,0.55-0.45,1-1,1s-1-0.45-1-1V25.609l-0.46,0.261
	c-0.16,0.09-0.33,0.13-0.5,0.13c-0.34,0-0.68-0.18-0.87-0.5c-0.27-0.48-0.1-1.09,0.37-1.37l0.58-0.33l-4.26-2.89
	c-0.46-0.31-0.58-0.93-0.27-1.39c0.31-0.45,0.93-0.57,1.39-0.26L23,21.98v-3.7c0-0.55,0.45-1,1-1s1,0.45,1,1v3.87l9.92-5.68
	c0.48-0.28,1.09-0.11,1.359,0.37C36.561,17.32,36.391,17.93,35.91,18.2z"/>
</svg>
