<?xml version="1.0" encoding="utf-8"?>
<!DOCTYPE svg PUBLIC "-//W3C//DTD SVG 1.1//EN" "http://www.w3.org/Graphics/SVG/1.1/DTD/svg11.dtd">
<svg version="1.1" id="Layer_1" xmlns="http://www.w3.org/2000/svg" xmlns:xlink="http://www.w3.org/1999/xlink" x="0px" y="0px"
	 width="48px" height="48px" viewBox="0 0 48 48" enable-background="new 0 0 48 48" xml:space="preserve">
<g>
	<path fill="#FFFFFF" d="M42.15,23.994C42.15,34,34.007,42.146,24,42.146S5.849,34,5.849,23.994c0-6.791,4.373-11.684,7.658-14.772
		c0.104-0.104,0.267-0.15,0.417-0.162c0.15,0.012,0.289,0.07,0.393,0.186l2.973,3.158c0.104,0.116,0.162,0.266,0.162,0.417
		s-0.07,0.301-0.185,0.405c-4.095,3.853-5.923,7.172-5.923,10.77c0,6.976,5.68,12.656,12.656,12.656
		c6.976,0,12.656-5.681,12.656-12.656c0-4.72-3.17-8.41-5.831-10.689c-0.116-0.093-0.185-0.243-0.196-0.393
		c-0.013-0.15,0.034-0.301,0.138-0.417l2.812-3.297c0.207-0.243,0.578-0.278,0.821-0.069C40.809,14.601,42.15,20.235,42.15,23.994z"
		/>
	<path fill="#FFFFFF" d="M28.049,7.452v10.122c0,0.312-0.254,0.578-0.578,0.578H27.25v8.04c0,0.312-0.254,0.578-0.578,0.578h-5.345
		c-0.323,0-0.579-0.267-0.579-0.578l-0.069-8.189h-0.15c-0.324,0-0.579-0.254-0.579-0.579V7.59c0-0.312,0.254-0.578,0.579-0.578
		h0.647V6.434c0-0.312,0.267-0.578,0.579-0.578h0.764c0.069,0,0.15,0.023,0.22,0.046c0.058-0.023,0.138-0.046,0.208-0.046h0.833
		c0.081,0,0.15,0.023,0.22,0.046c0.069-0.023,0.139-0.046,0.22-0.046h0.787c0.081,0,0.15,0.023,0.219,0.046
		c0.07-0.023,0.139-0.046,0.221-0.046h0.752c0.323,0,0.578,0.266,0.578,0.578v0.439h0.694C27.795,6.873,28.049,7.128,28.049,7.452z"
		/>
</g>
</svg>
