<?xml version="1.0" encoding="utf-8"?>
<!DOCTYPE svg PUBLIC "-//W3C//DTD SVG 1.1//EN" "http://www.w3.org/Graphics/SVG/1.1/DTD/svg11.dtd">
<svg version="1.1" id="Layer_1" xmlns="http://www.w3.org/2000/svg" xmlns:xlink="http://www.w3.org/1999/xlink" x="0px" y="0px"
	 width="48px" height="48px" viewBox="0 0 48 48" enable-background="new 0 0 48 48" xml:space="preserve">
<g>
	<path fill="#FFFFFF" d="M41.32,29.88c0.06-0.09,0.09-0.21,0.09-0.319L41.29,16.05c-0.12-1.89-0.91-2.909-2.431-3.05L16.29,12.2
		l-0.06-3.07c-0.02-0.29-0.2-0.54-0.49-0.62l-3.02-0.818c-0.09-0.021-0.18-0.041-0.29-0.012L7.14,8.62C6.86,8.67,6.63,8.9,6.6,9.189
		C6.57,9.46,6.71,9.74,6.98,9.859l2.71,1.24l0.66,26.811c0,0.04,0.02,0.14,0.03,0.17c0.04,0.24,0.2,0.439,0.42,0.52l4.46,1.61
		c0.08,0.03,0.15,0.04,0.23,0.04c0.13,0,0.26-0.04,0.38-0.12c0.17-0.12,0.28-0.33,0.28-0.54v-2.63l13.071-0.21
		c0.069,0,0.129-0.02,0.199-0.04c0.95,2.14,3.09,3.62,5.58,3.62c3.391,0,6.13-2.73,6.13-6.12c0-1.03-0.271-2.01-0.72-2.86
		c0.119-0.066,0.21-0.158,0.279-0.279L41.32,29.88z M35,39.01c-2.63,0-4.79-2.16-4.79-4.81c0-2.642,2.16-4.78,4.79-4.78
		c2.65,0,4.8,2.141,4.8,4.78C39.8,36.85,37.65,39.01,35,39.01z M39.65,30.221C38.52,28.91,36.87,28.09,35,28.09
		c-3.37,0-6.109,2.74-6.109,6.11c0,0.43,0.039,0.84,0.119,1.22l-12.85,0.21c0.03-0.04,0.03-0.09,0.03-0.14l0.12-21.961l22.48,0.791
		c0.66,0.068,1.09,0.39,1.17,1.779L40.08,29.4L39.65,30.221z"/>
	<path fill="#FFFFFF" d="M36.57,16.891V24.5c0,0.359-0.301,0.66-0.66,0.66h-4.221c-0.369,0-0.66-0.301-0.66-0.66v-7.609
		c0-0.371,0.291-0.66,0.66-0.66h4.221C36.27,16.23,36.57,16.52,36.57,16.891z"/>
	<path fill="#FFFFFF" d="M29.189,15.98v9.42c0,0.369-0.299,0.67-0.66,0.67H17.82c-0.37,0-0.66-0.301-0.66-0.67v-9.42
		c0-0.371,0.29-0.66,0.66-0.66h10.709C28.891,15.32,29.189,15.609,29.189,15.98z"/>
	<path fill="#FFFFFF" d="M23.999,34.996c-0.364,0-0.661-0.298-0.661-0.661v-3.64c0-0.363,0.297-0.66,0.661-0.66
		c0.364,0,0.662,0.297,0.662,0.66v3.64C24.66,34.699,24.363,34.996,23.999,34.996z"/>
	<path fill="#FFFFFF" d="M21.89,34.996c-0.366,0-0.662-0.298-0.662-0.661v-3.64c0-0.363,0.296-0.66,0.662-0.66
		c0.364,0,0.662,0.297,0.662,0.66v3.64C22.552,34.699,22.254,34.996,21.89,34.996z"/>
	<path fill="#FFFFFF" d="M19.864,34.996c-0.364,0-0.662-0.298-0.662-0.661v-3.64c0-0.363,0.298-0.66,0.662-0.66
		c0.365,0,0.662,0.297,0.662,0.66v3.64C20.526,34.699,20.229,34.996,19.864,34.996z"/>
	<path fill="#FFFFFF" d="M17.983,34.996c-0.364,0-0.661-0.298-0.661-0.661v-3.64c0-0.363,0.297-0.66,0.661-0.66
		c0.367,0,0.662,0.297,0.662,0.66v3.64C18.645,34.699,18.35,34.996,17.983,34.996z"/>
	<path fill="#FFFFFF" d="M37.454,32.378c-0.226-0.291-0.636-0.331-0.925-0.104l-1.51,1.229h-0.016l-2.143-2.194
		c-0.264-0.264-0.674-0.264-0.938-0.016c-0.264,0.264-0.264,0.678-0.016,0.938l2.158,2.197c0.026,0.479,0.41,0.85,0.886,0.85
		c0.437,0,0.807-0.313,0.874-0.74l1.535-1.229C37.641,33.079,37.691,32.654,37.454,32.378z"/>
</g>
</svg>
