<?xml version="1.0" encoding="utf-8"?>
<!DOCTYPE svg PUBLIC "-//W3C//DTD SVG 1.1//EN" "http://www.w3.org/Graphics/SVG/1.1/DTD/svg11.dtd">
<svg version="1.1" id="Layer_1" xmlns="http://www.w3.org/2000/svg" xmlns:xlink="http://www.w3.org/1999/xlink" x="0px" y="0px"
	 width="48px" height="48px" viewBox="0 0 48 48" enable-background="new 0 0 48 48" xml:space="preserve">
<g>
	<path fill="#FFFFFF" d="M42.575,15.316v21.081c0,0.01,0,0.01,0,0.019c0,1.146-0.935,2.077-2.077,2.077H25.059
		c1.114-1.135,2.305-2.305,3-2.84c0.361-0.274,1.516-0.896,1.726-1.008c0.229,0.037,1.313,0.197,1.971,0.197
		c0.124,0,0.229,0,0.313-0.02c2.295-0.381,3.517-1.6,4.324-2.629c0.534-0.687,0.896-1.742,0.99-2.896
		c0.098-1.094-0.076-2.104-0.447-2.693c-0.17-0.268-0.36-0.324-0.504-0.324c-0.182,0-0.306,0.097-0.324,0.104
		c0,0.011,0,0.011,0,0.011l-3.532,3.647c-0.104,0.01-0.22,0.01-0.333,0.01c-0.706,0-1.315-0.188-1.524-0.467
		c-0.284-0.39-0.313-1.123-0.296-1.849c0.153-0.274,2.276-2.334,3.604-3.57c0.009-0.01,0.019-0.02,0.019-0.029
		c0.076-0.104,0.114-0.392-0.22-0.647c-0.571-0.447-1.391-0.533-1.981-0.533c-0.817,0-1.562,0.161-2,0.314
		c-1.362,0.495-2.896,1.304-3.856,3.552c-0.36,0.849-0.334,2.372-0.19,3.42c0.048,0.438-0.494,1.313-0.987,1.925
		c-1.184,1.479-4.594,4.637-6.433,6.324h-8.82v-9.878h5.125l-0.01,0.171H14.7l0.01,1.676c0,0.061,0.057,0.114,0.113,0.114h5.611
		c0.066,0,0.114-0.056,0.114-0.114v-3.875c0-0.021,0-0.039-0.01-0.048c0-0.021-0.009-0.028-0.02-0.048
		c-0.038-0.113-0.124-0.344-0.438-0.361h-2.619l-0.391-0.391c-0.019-0.029-0.048-0.039-0.076-0.039h-1.705
		c-0.029,0-0.057,0.01-0.086,0.039l-0.495,0.504c-0.029,0.02-0.039,0.047-0.039,0.076v0.429l0.01,0.915h-9.25v-7.077h9.259V20.45
		h0.009l0.01,1.678c0,0.057,0.057,0.113,0.113,0.113h5.611c0.066,0,0.114-0.057,0.114-0.113v-3.876c0-0.021,0-0.038-0.01-0.049
		c0-0.019-0.009-0.028-0.02-0.047c-0.038-0.114-0.124-0.343-0.438-0.361h-2.619l-0.391-0.391c-0.019-0.028-0.048-0.039-0.076-0.039
		h-1.705c-0.029,0-0.057,0.01-0.086,0.039l-0.495,0.504c-0.029,0.021-0.039,0.049-0.039,0.077v0.59l0.01,1.059h-9.25v-8.049
		c0-1.144,0.933-2.077,2.076-2.077h9.43c2.152,0,5.896,3.934,7.8,4.028h16.137C41.832,13.554,42.594,14.354,42.575,15.316z"/>
	<path fill="#FFFFFF" d="M26.84,34.367l-4.164,4.124h-1.648l4.992-4.943c0.229-0.229,0.602-0.229,0.828,0
		C27.066,33.775,27.066,34.146,26.84,34.367z"/>
	<path fill="#FFFFFF" d="M8.598,28.613v9.878H7.483c-1.144-0.009-2.067-0.951-2.058-2.097v-7.781H8.598z"/>
</g>
</svg>
